<svg xmlns="http://www.w3.org/2000/svg">
  <symbol viewBox="2 2 44 44" id="icon-crop">
    <path fill="none" d="M0 0h48v48H0V0z" />
    <path d="M34 30h4V14c0-2.2-1.8-4-4-4H18v4h16v16zm-20 4V2h-4v8H2v4h8v20c0 2.2 1.8 4 4 4h20v8h4v-8h8v-4H14z" />
  </symbol>
  <symbol viewBox="2 0 44 43" id="icon-fill">
    <path fill="none" d="M0 0h48v48H0V0z" />
    <path d="M33.12 17.88L15.24 0 12.4 2.83l4.77 4.76-10.3 10.28c-1.16 1.17-1.16 3.07 0 4.24l11 11c.6.6 1.36.88 2.13.88s1.54-.3 2.12-.88l11-11c1.17-1.17 1.17-3.07 0-4.24zM10.42 20L20 10.42 29.6 20H10.4zM38 23s-4 4.33-4 7c0 2.2 1.8 4 4 4s4-1.8 4-4c0-2.67-4-7-4-7zM0 40h48v3H0z"
    />
  </symbol>
  <symbol viewBox="-35.42 -7.96 31.92 31.92" id="icon-contrast">
    <path d="M-19.46-3.96C-12.86-3.96-7.5 1.4-7.5 8s-5.37 11.96-11.96 11.96S-31.42 14.6-31.42 8s5.36-11.96 11.96-11.96m0-4C-28.28-7.96-35.42-.82-35.42 8c0 8.8 7.14 15.96 15.96 15.96S-3.5 16.8-3.5 8c0-8.8-7.15-15.96-15.96-15.96z"
    />
    <path d="M-19.46 16.33c4.7 0 8.52-3.8 8.52-8.52 0-4.7-3.82-8.5-8.52-8.5" />
  </symbol>
  <symbol viewBox="0 0 147 40" id="footer-pink">
    <g fill="#283645">
      <path d="M71.87 18.66c0-.7.58-1.3 1.26-1.3h7.18c5.1 0 8.45 2.72 8.45 7.16v.06c0 4.86-4.06 7.38-8.86 7.38H74.4v6.82c0 .7-.58 1.3-1.3 1.3-.67 0-1.25-.6-1.25-1.3V18.66zM80 29.64c3.72 0 6.17-2 6.17-4.96v-.06c0-3.22-2.4-4.9-6.05-4.9h-5.7v9.92H80zM93.6 18.5c0-.7.58-1.3 1.26-1.3.7 0 1.3.6 1.3 1.3v20.28c0 .7-.6 1.3-1.3 1.3-.68 0-1.26-.6-1.26-1.3V18.5zM102.74 18.53c0-.67.58-1.25 1.26-1.25h.35c.58 0 .94.3 1.3.74l13.68 17.45v-17c0-.68.54-1.26 1.25-1.26.68 0 1.23.6 1.23 1.27v20.35c0 .67-.47 1.2-1.15 1.2h-.13c-.55 0-.94-.33-1.32-.8l-13.97-17.85v17.45c0 .67-.55 1.25-1.26 1.25-.68 0-1.22-.58-1.22-1.25v-20.3zM128.17 18.5c0-.7.58-1.3 1.26-1.3.7 0 1.3.6 1.3 1.3v12.33l12.83-13.16c.3-.26.58-.45 1-.45.68 0 1.23.6 1.23 1.26 0 .35-.18.64-.43.9l-8 7.92 8.58 10.56c.22.3.35.54.35.93 0 .67-.58 1.28-1.28 1.28-.5 0-.8-.26-1.03-.58l-8.4-10.46-4.88 4.86v4.9c0 .7-.58 1.28-1.28 1.28-.68 0-1.26-.58-1.26-1.3V18.5z"
      />
    </g>
    <path fill="#D22856" d="M60.46 28.02L55.3 6.65C54.92 4.3 52.7 0 46.7 0c-.84 0-1.5.67-1.5 1.5S45.85 3 46.7 3c4.84 0 5.56 3.73 5.63 4.14l4.76 19.7H55c-.74-5.92-5.8-10.53-11.93-10.53s-11.2 4.62-11.93 10.54h-1.82c-.74-5.92-5.8-10.53-11.93-10.53S6.22 20.93 5.5 26.85H3.4L8.2 7.14c.05-.4.77-4.14 5.63-4.14.83 0 1.5-.67 1.5-1.5S14.65 0 13.83 0c-6 0-8.24 4.3-8.6 6.65L.05 28.02c-.26 1.1.53 1.82 1.43 1.82H5.5c.74 5.93 5.8 10.54 11.92 10.54s11.2-4.6 11.93-10.53h1.8c.76 5.92 5.82 10.53 11.94 10.53S54.27 35.78 55 29.85h4.02c.9 0 1.7-.73 1.42-1.83zM26.3 29.84c-.7 4.28-4.4 7.54-8.88 7.54s-8.18-3.26-8.9-7.54c-.08-.48-.13-.98-.13-1.5s.04-1 .12-1.5c.72-4.27 4.42-7.53 8.9-7.53s8.18 3.27 8.9 7.54c.08.5.13 1 .13 1.5s-.05 1.02-.13 1.5zm25.7 0c-.73 4.28-4.43 7.54-8.9 7.54-4.48 0-8.2-3.26-8.9-7.54-.08-.48-.14-.98-.14-1.5s.06-1 .14-1.5c.7-4.27 4.42-7.53 8.9-7.53 4.47 0 8.17 3.27 8.9 7.54.07.5.13 1 .13 1.5s-.06 1.02-.14 1.5z"
    />
  </symbol>
  <symbol viewBox="0 0 17.5 14.66" id="icon-twitter">
    <path fill-rule="evenodd" d="M11.28.15c1.74-.48 3.08.27 3.7 1.15.68-.22 1.36-.47 2.06-.7 0 .85-.54 1.5-.88 1.74.7.17 1.34-.48 1.34-.48-.17.98-1.03 1.75-1.6 1.98-.25 6.6-3.28 10.95-10.4 10.82h-.45c-.43 0-4.3-.45-5.05-1.84 2.34.2 4-.42 4.83-1.15-.98-.3-2.76-.47-3.06-2.88.36.1.58.2 1.22.1C1.75 8.07.37 7.37.45 5.22c.3.32 1.1.52 1.38.46C1.12 5.44-.2 2.4.92.84c1.87 1.8 3.85 3.52 7.37 3.7.2-2.25 1.16-3.75 2.98-4.4z"
      clip-rule="evenodd" />
  </symbol>
  <symbol viewBox="0 0 8.67 18.94" id="icon-facebook">
    <path d="M6.28 3.36h2.4V0H5.8C2.65.18 1.54 2.4 1.94 6.12H0v3.5h1.96v9.32H5.8v-9.3h2.85V6.1H5.8c-.04-1.03-.05-2.4.48-2.74z"
    />
  </symbol>
  <symbol viewBox="0 0 14.64 13.96" id="icon-youtube">
    <path d="M1.77 13.78C.8 14.26 0 13.76 0 12.68V1.27C0 .2.8-.3 1.77.2L13.92 6.1c.98.5.98 1.27 0 1.75L1.78 13.78z" />
  </symbol>
  <symbol viewBox="0 0 26.94 34.09" id="footer-academy">
    <path d="M13.62.02L13.47 0 0 1.4v24.67l13.47 8.02 13.43-8 .04-.03V1.4L13.62.03zm11.4 12.1L13.5 5.33v-.1l-.1.06-.08-.06v.1l-11.4 6.8V3.15l11.55-1.2 11.55 1.2v8.98zM13.4 6.8l11.52 6.7-4.48 2.64-7.1-4.22v1.4l5.9 3.53-.86.5-5.03-3v1.43l3.8 2.27-.77.52-3.03-1.78v1.4l1.84 1.1-1.8 1.07-11.37-6.75L13.4 6.8zM1.93 15.12l11.4 6.8.02 1.03-7.94-4.73v1.42l7.97 4.8.02 1.07-7.98-4.74v1.42l8 4.82.05.02 8.14-4.87V17l3.42-2.04v10.02l-11.55 6.87-11.54-6.87v-9.85z"
    />
  </symbol>
  <symbol viewBox="521.94 473.06 12.54 11.99" id="icon-like">
    <path d="M528.17 485.06c-.2 0-.4-.1-.55-.25-3.8-4.32-4.64-5.3-4.86-5.57-.53-.67-.82-1.5-.82-2.37 0-2.1 1.7-3.8 3.8-3.8.93 0 1.8.32 2.48.9.7-.58 1.56-.9 2.46-.9 2.1 0 3.8 1.7 3.8 3.8 0 .9-.3 1.75-.9 2.38l-4.85 5.56c-.14.16-.34.25-.56.25zm-4.24-6.7l4.24 4.85 4.33-4.94c.34-.37.52-.86.52-1.4 0-1.28-1.05-2.33-2.33-2.33-.74 0-1.44.35-1.92.95-.14.17-.35.26-.58.27-.23 0-.44-.1-.58-.3-.44-.58-1.12-.92-1.88-.92-1.3 0-2.33 1.05-2.33 2.33 0 .68.28 1.17.5 1.47.02 0 .02 0 .03.02z"/>
  </symbol>
  <symbol viewBox="0 0 46.21 56.75" id="icon-apple">
    <path fill="#FFF" d="M38.6 30.15c.07 8.6 7.53 11.45 7.6 11.48-.05.2-1.18 4.08-3.92 8.07-2.36 3.46-4.82 6.9-8.7 6.98-3.78.07-5-2.26-9.35-2.26-4.34 0-5.7 2.2-9.3 2.32-3.73.15-6.57-3.73-8.96-7.18-4.87-7.05-8.6-19.9-3.6-28.6 2.5-4.3 6.93-7.04 11.75-7.1 3.66-.08 7.12 2.46 9.36 2.46 2.24 0 6.45-3.05 10.87-2.6 1.85.08 7.04.75 10.38 5.63-.27.17-6.2 3.62-6.14 10.8m-7.15-21.1c2-2.4 3.32-5.73 2.96-9.05-2.85.1-6.3 1.9-8.35 4.3-1.84 2.13-3.45 5.52-3.02 8.78 3.2.25 6.44-1.62 8.42-4.02"/>
  </symbol>
  <symbol viewBox="0 0 42.08 47.04" id="icon-android">
    <path fill="#A4C639" d="M34.14 14H7.94v19.1c0 1.92 1.44 3.5 3.3 3.62v7.43c0 1.6 1.3 2.9 2.9 2.9 1.58 0 2.87-1.3 2.87-2.9v-7.42h8.08v7.42c0 1.6 1.3 2.9 2.9 2.9 1.58 0 2.87-1.3 2.87-2.9v-7.43c1.86-.14 3.32-1.7 3.32-3.63V14.32c0-.1 0-.22-.02-.33zM2.9 15.68c1.58 0 2.87 1.3 2.87 2.88v12.38c0 1.6-1.3 2.9-2.88 2.9-1.6 0-2.9-1.3-2.9-2.9V18.56c0-1.6 1.3-2.88 2.9-2.88zm36.3 0c1.6 0 2.88 1.3 2.88 2.88v12.38c0 1.6-1.3 2.9-2.88 2.9-1.6 0-2.9-1.3-2.9-2.9V18.56c0-1.6 1.3-2.88 2.9-2.88zm-31.17-3.7h26.03c-.04-2.8-1.24-5.34-3.2-7.3L33.32.46c.1-.15.05-.33-.1-.42-.14-.08-.33-.03-.4.1L30.4 4.27C28.36 2.4 24.17.87 21.04.87c-3 0-7.32 1.54-9.37 3.4L9.3.16c-.1-.16-.27-.2-.42-.13-.14.08-.2.27-.1.42L11.2 4.7C9.24 6.64 8.05 9.18 8 11.97zm17.3-5.18c0-.8.66-1.46 1.48-1.46.85 0 1.5.65 1.5 1.46 0 .8-.64 1.46-1.47 1.47-.82 0-1.5-.65-1.5-1.46zm-11.15 0c0-.8.67-1.46 1.5-1.46.8 0 1.48.65 1.5 1.46 0 .8-.68 1.46-1.5 1.47-.83 0-1.5-.65-1.5-1.46z"/>
  </symbol>
  <symbol viewBox="0 0 43.92 41.99" id="icon-microsoft">
    <path fill="#F05423" d="M20.87 19.95H0V0h20.87v19.95z"/>
    <path fill="#84C441" d="M43.92 19.95H23.05V0h20.87v19.95z"/>
    <path fill="#2DABE2" d="M20.87 42H0V22.03h20.87V42z"/>
    <path fill="#F9BC15" d="M43.92 42H23.05V22.03h20.87V42z"/>
  </symbol>
</svg>
